<svg width="1920" height="1080" viewBox="0 0 1920 1080" fill="none" xmlns="http://www.w3.org/2000/svg">
<path d="M888.973 704.974V694.558H898.773C900.173 694.558 901.162 694.782 901.741 695.23C902.329 695.669 902.623 696.233 902.623 696.924V697.078C902.623 697.657 902.436 698.119 902.063 698.464C901.69 698.8 901.279 699.019 900.831 699.122C901.111 699.187 901.368 699.276 901.601 699.388C901.844 699.5 902.096 699.654 902.357 699.85C902.628 700.046 902.838 700.312 902.987 700.648C903.146 700.984 903.225 701.367 903.225 701.796V701.964C903.225 703.971 901.76 704.974 898.829 704.974H888.973ZM897.569 696.924H892.949V698.394H897.569C898.278 698.394 898.633 698.151 898.633 697.666V697.638C898.633 697.162 898.278 696.924 897.569 696.924ZM897.821 700.732H892.949V702.524H897.821C898.642 702.524 899.053 702.225 899.053 701.628V701.586C899.053 701.017 898.642 700.732 897.821 700.732Z" fill="black"/>
<path d="M907.919 697.624H912.301C913.318 697.624 914.181 697.717 914.891 697.904C915.6 698.081 916.141 698.338 916.515 698.674C916.897 699.01 917.168 699.379 917.327 699.78C917.485 700.181 917.565 700.643 917.565 701.166V701.39C917.565 701.913 917.485 702.379 917.327 702.79C917.168 703.191 916.897 703.565 916.515 703.91C916.141 704.246 915.6 704.507 914.891 704.694C914.181 704.881 913.318 704.974 912.301 704.974H903.943V694.558H907.919V697.624ZM907.919 702.384H911.797C912.898 702.384 913.449 702.025 913.449 701.306V701.264C913.449 700.564 912.898 700.214 911.797 700.214H907.919V702.384ZM922.325 694.558V704.974H918.363V694.558H922.325Z" fill="black"/>
<path d="M923.562 704.974V694.558H936.372V697.008H927.538V698.254H932.102C933.119 698.254 933.982 698.333 934.692 698.492C935.401 698.651 935.942 698.884 936.316 699.192C936.698 699.491 936.969 699.827 937.128 700.2C937.286 700.564 937.366 700.989 937.366 701.474V701.6C937.366 702.095 937.286 702.533 937.128 702.916C936.969 703.299 936.698 703.653 936.316 703.98C935.942 704.297 935.401 704.545 934.692 704.722C933.982 704.89 933.119 704.974 932.102 704.974H923.562ZM927.538 702.454H931.668C932.722 702.454 933.25 702.146 933.25 701.53V701.488C933.25 700.9 932.722 700.606 931.668 700.606H927.538V702.454Z" fill="black"/>
<path d="M948.677 704.974V698.436L942.139 704.974H938.163V694.558H942.139V701.11L948.677 694.558H952.653V704.974H948.677Z" fill="black"/>
<path d="M962.635 701.712H957.931V704.974H953.955V694.558H962.635C965.93 694.558 967.577 695.706 967.577 698.002V698.226C967.577 700.55 965.93 701.712 962.635 701.712ZM957.931 697.162V699.108H962.159C963.037 699.108 963.475 698.791 963.475 698.156V698.114C963.475 697.479 963.037 697.162 962.159 697.162H957.931Z" fill="black"/>
<path d="M975.267 700.69L973.517 697.106L971.809 700.69H975.267ZM977.353 704.974L976.541 703.294H970.591L969.793 704.974H965.761L970.913 694.558H976.261L981.707 704.974H977.353Z" fill="black"/>
<path d="M1002.22 699.528V699.948C1002.22 700.256 1002.2 700.559 1002.15 700.858C1002.11 701.147 1002.02 701.474 1001.89 701.838C1001.76 702.193 1001.58 702.524 1001.36 702.832C1001.14 703.131 1000.85 703.429 1000.47 703.728C1000.1 704.017 999.667 704.269 999.173 704.484C998.687 704.689 998.085 704.853 997.367 704.974C996.657 705.105 995.869 705.17 995.001 705.17H994.469C993.47 705.17 992.569 705.086 991.767 704.918C990.973 704.741 990.325 704.521 989.821 704.26C989.317 703.989 988.887 703.667 988.533 703.294C988.178 702.911 987.917 702.538 987.749 702.174C987.581 701.81 987.459 701.423 987.385 701.012H985.999V704.974H982.023V694.558H985.999V698.24H987.427C988.061 695.655 990.409 694.362 994.469 694.362H995.001C996.195 694.362 997.245 694.483 998.151 694.726C999.056 694.959 999.761 695.253 1000.26 695.608C1000.77 695.963 1001.17 696.387 1001.48 696.882C1001.79 697.367 1001.99 697.82 1002.08 698.24C1002.18 698.651 1002.22 699.08 1002.22 699.528ZM998.095 699.822V699.626C998.095 699.327 998.039 699.043 997.927 698.772C997.824 698.501 997.651 698.24 997.409 697.988C997.166 697.736 996.811 697.535 996.345 697.386C995.887 697.237 995.346 697.162 994.721 697.162C993.507 697.162 992.644 697.405 992.131 697.89C991.617 698.375 991.361 698.954 991.361 699.626V699.794C991.361 700.027 991.389 700.256 991.445 700.48C991.51 700.704 991.622 700.933 991.781 701.166C991.949 701.399 992.154 701.605 992.397 701.782C992.639 701.95 992.961 702.09 993.363 702.202C993.764 702.305 994.217 702.356 994.721 702.356C995.346 702.356 995.887 702.281 996.345 702.132C996.811 701.973 997.166 701.763 997.409 701.502C997.651 701.241 997.824 700.975 997.927 700.704C998.039 700.424 998.095 700.13 998.095 699.822Z" fill="black"/>
<path d="M1006.98 704.974V697.4H1002.48V694.558H1015.45V697.4H1010.95V704.974H1006.98Z" fill="black"/>
<path d="M264 735.974V406.382H574.1C618.4 406.382 649.705 413.47 668.016 427.646C686.622 441.527 695.925 459.394 695.925 481.249V486.122C695.925 504.433 690.018 519.052 678.205 529.979C666.392 540.611 653.397 547.551 639.221 550.8C648.081 552.867 656.203 555.673 663.586 559.217C671.265 562.761 679.239 567.634 687.508 573.836C696.073 580.038 702.718 588.455 707.443 599.087C712.464 609.719 714.974 621.828 714.974 635.413V640.729C714.974 704.226 668.607 735.974 575.872 735.974H264ZM536.002 481.249H389.812V527.764H536.002C558.447 527.764 569.67 520.085 569.67 504.728V503.842C569.67 488.78 558.447 481.249 536.002 481.249ZM543.976 601.745H389.812V658.449H543.976C569.965 658.449 582.96 648.998 582.96 630.097V628.768C582.96 610.753 569.965 601.745 543.976 601.745Z" fill="black"/>
<path d="M1001.94 600.416L946.566 487.008L892.52 600.416H1001.94ZM1067.95 735.974L1042.25 682.814H853.979L828.728 735.974H701.144L864.168 406.382H1033.39L1205.72 735.974H1067.95Z" fill="black"/>
<path d="M1425.56 742.176H1408.28C1369.59 742.176 1335.63 738.337 1306.39 730.658C1277.45 722.979 1254.86 713.529 1238.61 702.306C1222.37 690.788 1209.23 677.203 1199.19 661.55C1189.15 645.897 1182.65 631.426 1179.69 618.136C1176.74 604.846 1175.26 590.965 1175.26 576.494V563.647C1175.26 548.88 1176.59 535 1179.25 522.005C1182.21 509.01 1188.55 494.834 1198.3 479.477C1208.05 463.824 1220.89 450.534 1236.84 439.607C1253.09 428.384 1275.83 419.081 1305.06 411.698C1334.6 404.019 1369 400.18 1408.28 400.18H1425.56C1453.03 400.18 1478.13 401.952 1500.87 405.496C1523.91 409.04 1543.1 413.618 1558.46 419.229C1574.11 424.84 1587.85 431.633 1599.66 439.607C1611.77 447.286 1621.22 455.112 1628.01 463.086C1634.8 471.06 1640.27 479.625 1644.4 488.78C1648.83 497.64 1651.64 505.614 1652.82 512.702C1654.3 519.79 1655.03 526.73 1655.03 533.523V539.282H1524.35C1514.31 505.614 1478.13 488.78 1415.81 488.78C1342.28 488.78 1305.51 514.474 1305.51 565.862V571.178C1305.51 580.924 1307.13 590.227 1310.38 599.087C1313.92 607.947 1319.54 616.659 1327.21 625.224C1335.19 633.789 1346.71 640.581 1361.77 645.602C1377.13 650.623 1395.29 653.133 1416.26 653.133C1434.57 653.133 1450.66 651.509 1464.54 648.26C1478.42 644.716 1488.91 640.877 1496 636.742C1503.08 632.607 1508.99 627.439 1513.72 621.237C1518.44 615.035 1521.25 610.605 1522.13 607.947C1523.02 605.289 1523.91 602.336 1524.79 599.087H1655.03V606.175C1655.03 616.216 1653.56 626.553 1650.6 637.185C1647.65 647.522 1641.15 659.335 1631.11 672.625C1621.07 685.62 1608.08 697.138 1592.13 707.179C1576.48 716.925 1554.18 725.194 1525.23 731.987C1496.59 738.78 1463.36 742.176 1425.56 742.176Z" fill="black"/>
<path d="M264.086 392.974V279.142H371.186C386.486 279.142 397.298 281.59 403.622 286.486C410.048 291.28 413.261 297.451 413.261 304.999V306.682C413.261 313.006 411.221 318.055 407.141 321.829C403.061 325.501 398.573 327.898 393.677 329.02C396.737 329.734 399.542 330.703 402.092 331.927C404.744 333.151 407.498 334.834 410.354 336.976C413.312 339.118 415.607 342.025 417.239 345.697C418.973 349.369 419.84 353.551 419.84 358.243V360.079C419.84 382.009 403.826 392.974 371.798 392.974H264.086ZM358.028 304.999H307.538V321.064H358.028C365.78 321.064 369.656 318.412 369.656 313.108V312.802C369.656 307.6 365.78 304.999 358.028 304.999ZM360.782 346.615H307.538V366.199H360.782C369.758 366.199 374.246 362.935 374.246 356.407V355.948C374.246 349.726 369.758 346.615 360.782 346.615Z" fill="black"/>
<path d="M471.136 312.649H519.025C530.143 312.649 539.578 313.669 547.33 315.709C555.082 317.647 560.998 320.452 565.078 324.124C569.26 327.796 572.218 331.825 573.952 336.211C575.686 340.597 576.553 345.646 576.553 351.358V353.806C576.553 359.518 575.686 364.618 573.952 369.106C572.218 373.492 569.26 377.572 565.078 381.346C560.998 385.018 555.082 387.874 547.33 389.914C539.578 391.954 530.143 392.974 519.025 392.974H427.684V279.142H471.136V312.649ZM471.136 364.669H513.517C525.553 364.669 531.571 360.742 531.571 352.888V352.429C531.571 344.779 525.553 340.954 513.517 340.954H471.136V364.669ZM628.573 279.142V392.974H585.274V279.142H628.573Z" fill="black"/>
<path d="M642.093 392.974V279.142H782.088V305.917H685.545V319.534H735.423C746.541 319.534 755.976 320.401 763.728 322.135C771.48 323.869 777.396 326.419 781.476 329.785C785.658 333.049 788.616 336.721 790.35 340.801C792.084 344.779 792.951 349.42 792.951 354.724V356.101C792.951 361.507 792.084 366.301 790.35 370.483C788.616 374.665 785.658 378.541 781.476 382.111C777.396 385.579 771.48 388.282 763.728 390.22C755.976 392.056 746.541 392.974 735.423 392.974H642.093ZM685.545 365.434H730.68C742.206 365.434 747.969 362.068 747.969 355.336V354.877C747.969 348.451 742.206 345.238 730.68 345.238H685.545V365.434Z" fill="black"/>
<path d="M916.57 392.974V321.523L845.119 392.974H801.667V279.142H845.119V350.746L916.57 279.142H960.022V392.974H916.57Z" fill="black"/>
<path d="M1069.11 357.325H1017.7V392.974H974.251V279.142H1069.11C1105.12 279.142 1123.12 291.688 1123.12 316.78V319.228C1123.12 344.626 1105.12 357.325 1069.11 357.325ZM1017.7 307.6V328.867H1063.91C1073.5 328.867 1078.29 325.399 1078.29 318.463V318.004C1078.29 311.068 1073.5 307.6 1063.91 307.6H1017.7Z" fill="black"/>
<path d="M1207.15 346.156L1188.03 306.988L1169.36 346.156H1207.15ZM1229.95 392.974L1221.08 374.614H1156.05L1147.33 392.974H1103.27L1159.57 279.142H1218.02L1277.53 392.974H1229.95Z" fill="black"/>
<path d="M1501.77 333.457V338.047C1501.77 341.413 1501.51 344.728 1501 347.992C1500.49 351.154 1499.52 354.724 1498.09 358.702C1496.67 362.578 1494.73 366.199 1492.28 369.565C1489.93 372.829 1486.72 376.093 1482.64 379.357C1478.56 382.519 1473.82 385.273 1468.41 387.619C1463.11 389.863 1456.53 391.648 1448.68 392.974C1440.92 394.402 1432.3 395.116 1422.82 395.116H1417C1406.09 395.116 1396.25 394.198 1387.48 392.362C1378.81 390.424 1371.72 388.027 1366.21 385.171C1360.7 382.213 1356.01 378.694 1352.13 374.614C1348.26 370.432 1345.4 366.352 1343.56 362.374C1341.73 358.396 1340.4 354.163 1339.59 349.675H1324.44V392.974H1280.99V279.142H1324.44V319.381H1340.05C1346.98 291.127 1372.63 277 1417 277H1422.82C1435.87 277 1447.35 278.326 1457.24 280.978C1467.14 283.528 1474.84 286.741 1480.35 290.617C1485.85 294.493 1490.29 299.134 1493.66 304.54C1497.02 309.844 1499.22 314.791 1500.24 319.381C1501.26 323.869 1501.77 328.561 1501.77 333.457ZM1456.63 336.67V334.528C1456.63 331.264 1456.02 328.153 1454.8 325.195C1453.67 322.237 1451.79 319.381 1449.13 316.627C1446.48 313.873 1442.61 311.68 1437.51 310.048C1432.51 308.416 1426.59 307.6 1419.76 307.6C1406.5 307.6 1397.06 310.252 1391.45 315.556C1385.84 320.86 1383.04 327.184 1383.04 334.528V336.364C1383.04 338.914 1383.34 341.413 1383.96 343.861C1384.67 346.309 1385.89 348.808 1387.63 351.358C1389.46 353.908 1391.71 356.152 1394.36 358.09C1397.01 359.926 1400.53 361.456 1404.92 362.68C1409.3 363.802 1414.25 364.363 1419.76 364.363C1426.59 364.363 1432.51 363.547 1437.51 361.915C1442.61 360.181 1446.48 357.886 1449.13 355.03C1451.79 352.174 1453.67 349.267 1454.8 346.309C1456.02 343.249 1456.63 340.036 1456.63 336.67Z" fill="black"/>
<path d="M1553.7 392.974V310.201H1504.59V279.142H1646.27V310.201H1597.15V392.974H1553.7Z" fill="black"/>
</svg>
